<?xml version="1.0" encoding="utf-8"?>
<!-- Generator: Adobe Illustrator 21.0.0, SVG Export Plug-In . SVG Version: 6.00 Build 0)  -->
<svg version="1.1" id="Layer_1" xmlns="http://www.w3.org/2000/svg" xmlns:xlink="http://www.w3.org/1999/xlink" x="0px" y="0px"
	 viewBox="0 0 100 50" style="enable-background:new 0 0 100 50;" xml:space="preserve">
<title>iii</title>
<path d="M12.3,20h3.2c1.6,0,2.4,1,2.4,2.2c0,0.8-0.4,1.3-1.2,1.5c1.1,0.3,1.7,1,1.7,2.1c0,1.5-1.1,2.6-2.8,2.6h-3.4V20z M15.4,23.1
	c0.6,0,0.9-0.3,0.9-0.8s-0.3-0.8-0.8-0.8h-1.4v1.6L15.4,23.1z M15.6,26.9c0.7,0,1.1-0.5,1.1-1.2s-0.4-1.1-1.2-1.1H14v2.3L15.6,26.9z
	"/>
<path d="M19.6,23.1h1.7l0,0.9c0.4-0.9,1-1.1,1.5-1.1c0.3,0,0.6,0.1,0.8,0.2l-0.5,1.5c-0.2-0.1-0.4-0.2-0.6-0.2
	c-0.8,0-1.2,0.3-1.2,1.5v2.3h-1.7L19.6,23.1z"/>
<path d="M27,27.1c0.5,0,0.9-0.1,1.3-0.4l0.9,1c-0.5,0.4-1.1,0.8-2.2,0.8c-1.9,0-3.1-1.1-3.1-2.7c0-1.6,1.3-2.7,2.9-2.7
	c1.9,0,2.9,1.4,2.8,3.2h-4C25.8,26.8,26.2,27.1,27,27.1z M27.9,25.3c-0.1-0.6-0.4-0.9-1.1-0.9s-1.1,0.3-1.2,0.9H27.9z"/>
<path d="M29.9,23.1h1.8l0.6,1.5c0.2,0.4,0.3,0.8,0.4,1.2c0.1-0.4,0.3-0.8,0.4-1.2L34,23h0.1l0.9,1.6c0.2,0.4,0.3,0.8,0.4,1.2
	c0.1-0.4,0.2-0.8,0.4-1.2l0.6-1.5h1.7l-2.4,5.4h-0.1l-1.1-2.1c-0.2-0.3-0.3-0.7-0.4-1.1c-0.1,0.4-0.2,0.7-0.4,1.1l-1.2,2.1h-0.1
	L29.9,23.1z"/>
<path d="M40.9,24.4c-0.4,0-0.9,0.2-1.2,0.5l-0.9-1c0.5-0.5,1.1-0.9,2.3-0.9c1.3,0,2.4,0.7,2.4,2.4v3h-1.7l0-0.7
	c-0.4,0.6-0.8,0.8-1.5,0.8c-1,0-1.8-0.4-1.8-1.7c0-1.1,0.8-1.6,2.1-1.6h1.2C41.7,24.7,41.4,24.4,40.9,24.4z M40.6,26.3
	c-0.4,0-0.6,0.2-0.6,0.5c0,0.3,0.2,0.5,0.7,0.5c0.7,0,1-0.3,1-0.7v-0.2L40.6,26.3z"/>
<path d="M49.8,23.1v1.2H49c0.1,0.2,0.2,0.4,0.2,0.6c0,1.1-0.9,1.9-2.2,1.9c-0.4,0-0.7-0.1-1.1-0.2c-0.1,0.1-0.1,0.2-0.1,0.3
	c0,0.2,0.2,0.4,0.5,0.4l1.3,0.1c1.4,0.1,2.2,0.7,2.2,1.7c0,1.1-0.8,1.9-2.9,1.9c-1.9,0-2.8-0.7-2.8-1.7c0-0.6,0.4-0.9,1-1.2
	c-0.4-0.2-0.7-0.6-0.6-1.1c0-0.5,0.3-0.8,0.7-1c-0.3-0.3-0.5-0.8-0.5-1.2c0-1.1,0.9-1.9,2.3-1.9c0.3,0,0.5,0,0.8,0.1L49.8,23.1z
	 M45.8,29.2c0,0.4,0.3,0.7,1.2,0.7c1,0,1.2-0.3,1.2-0.6c0-0.3-0.2-0.4-0.9-0.4l-1.4-0.1C45.8,28.9,45.8,29,45.8,29.2L45.8,29.2z
	 M47.8,25c0-0.4-0.3-0.7-0.8-0.7c-0.5,0-0.8,0.3-0.8,0.7c0,0.4,0.3,0.7,0.8,0.7C47.5,25.7,47.8,25.4,47.8,25L47.8,25z"/>
<path d="M53.4,27.1c0.5,0,0.9-0.1,1.3-0.4l0.9,1c-0.5,0.4-1.1,0.8-2.2,0.8c-1.9,0-3.1-1.1-3.1-2.7c0-1.6,1.3-2.7,2.9-2.7
	c1.9,0,2.9,1.4,2.8,3.2h-4C52.3,26.8,52.7,27.1,53.4,27.1z M54.4,25.3c-0.1-0.6-0.4-0.9-1.1-0.9s-1.1,0.3-1.2,0.9H54.4z"/>
<path d="M62.1,24.4c-0.4,0-0.9,0.2-1.2,0.5l-0.9-1c0.5-0.5,1.1-0.9,2.3-0.9c1.3,0,2.4,0.7,2.4,2.4v3H63l0-0.7
	c-0.4,0.6-0.8,0.8-1.5,0.8c-1,0-1.8-0.4-1.8-1.7c0-1.1,0.8-1.6,2.1-1.6H63C63,24.7,62.7,24.4,62.1,24.4z M60.5,19.9h1.9l0.6,2.3
	h-1.3L60.5,19.9z M61.9,26.3c-0.4,0-0.6,0.2-0.6,0.5c0,0.3,0.2,0.5,0.7,0.5c0.7,0,1-0.3,1-0.7v-0.2L61.9,26.3z"/>
<path d="M70.4,21.5H68V20h6.5v1.5h-2.4v6.8h-1.7L70.4,21.5L70.4,21.5z"/>
<path d="M74.1,23.1h1.7l0,0.9c0.4-0.9,1-1.1,1.5-1.1c0.3,0,0.6,0.1,0.8,0.2l-0.5,1.5c-0.2-0.1-0.4-0.2-0.6-0.2
	c-0.8,0-1.2,0.3-1.2,1.5v2.3h-1.7V23.1z"/>
<path d="M78.5,25.8c0-1.6,1.3-2.7,2.9-2.7c1.6,0,2.9,1.1,2.9,2.7s-1.3,2.7-2.9,2.7C79.7,28.5,78.5,27.4,78.5,25.8z M82.5,25.8
	c0-0.8-0.4-1.3-1.2-1.3c-0.7,0-1.2,0.5-1.2,1.3c0,0.8,0.5,1.3,1.2,1.3S82.5,26.5,82.5,25.8L82.5,25.8z"/>
<path d="M85.1,21.2c0-0.6,0.5-1.1,1.1-1.1s1.1,0.5,1.1,1.1c0,0.6-0.5,1.1-1.1,1.1l0,0C85.5,22.3,85.1,21.8,85.1,21.2
	C85.1,21.2,85.1,21.2,85.1,21.2z M85.3,23.1H87v5.2h-1.7V23.1z"/>
<path d="M88.2,21.2c0-0.6,0.5-1.1,1.1-1.1s1.1,0.5,1.1,1.1c0,0.6-0.5,1.1-1.1,1.1l0,0C88.7,22.3,88.2,21.8,88.2,21.2
	C88.2,21.2,88.2,21.2,88.2,21.2z M88.4,23.1h1.7v5.2h-1.7V23.1z"/>
<path d="M91.4,21.2c0-0.6,0.5-1.1,1.1-1.1c0.6,0,1.1,0.5,1.1,1.1c0,0.6-0.5,1.1-1.1,1.1l0,0C91.9,22.3,91.4,21.8,91.4,21.2
	C91.4,21.2,91.4,21.2,91.4,21.2z M91.6,23.1h1.7v5.2h-1.7V23.1z"/>
<path d="M94.2,27.5l1-0.9c0.3,0.3,0.8,0.6,1.3,0.6c0.5,0,0.7-0.1,0.7-0.3c0-0.3-0.3-0.3-1.2-0.5c-0.7-0.2-1.5-0.6-1.5-1.7
	c0-1.2,0.9-1.7,2-1.7c0.9,0,1.5,0.3,1.9,0.7l-0.9,0.9c-0.3-0.2-0.6-0.4-1-0.4c-0.4,0-0.6,0.1-0.6,0.3c0,0.3,0.3,0.3,1.1,0.5
	c0.8,0.2,1.7,0.5,1.7,1.6c0,1-0.5,1.7-2.2,1.7C95.4,28.5,94.6,28,94.2,27.5z"/>
</svg>
