<?xml version="1.0" encoding="utf-8"?>
<!-- Generator: Adobe Illustrator 21.0.2, SVG Export Plug-In . SVG Version: 6.00 Build 0)  -->
<svg version="1.1" id="Layer_1" xmlns="http://www.w3.org/2000/svg" xmlns:xlink="http://www.w3.org/1999/xlink" x="0px" y="0px"
	 viewBox="0 0 201 51" style="enable-background:new 0 0 201 51;" xml:space="preserve">
<title>iii</title>
<g>
	<path d="M6.4,13.2h7.1c3.5,0,5.3,2.2,5.3,4.9c0,1.8-0.9,2.9-2.7,3.3c2.4,0.7,3.8,2.2,3.8,4.6c0,3.3-2.4,5.8-6.2,5.8H6.2V13.2H6.4z
		 M13.3,20.1c1.3,0,2-0.7,2-1.8s-0.7-1.8-1.8-1.8h-3.1v3.5L13.3,20.1z M13.7,28.5c1.5,0,2.4-1.1,2.4-2.7s-0.9-2.4-2.7-2.4h-3.3v5.1
		L13.7,28.5z"/>
	<path d="M22.6,20.1h3.8v2c0.9-2,2.2-2.4,3.3-2.4c0.7,0,1.3,0.2,1.8,0.4l-1.1,3.3c-0.4-0.2-0.9-0.4-1.3-0.4c-1.8,0-2.7,0.7-2.7,3.3
		v5.1h-3.8L22.6,20.1z"/>
	<path d="M38.9,28.9c1.1,0,2-0.2,2.9-0.9l2,2.2c-1.1,0.9-2.4,1.8-4.9,1.8c-4.2,0-6.9-2.4-6.9-6s2.9-6,6.4-6c4.2,0,6.4,3.1,6.2,7.1
		h-8.8C36.3,28.2,37.2,28.9,38.9,28.9z M40.9,24.9c-0.2-1.3-0.9-2-2.4-2s-2.4,0.7-2.7,2H40.9z"/>
	<path d="M45.4,20.1h4l1.3,3.3c0.4,0.9,0.7,1.8,0.9,2.7c0.2-0.9,0.7-1.8,0.9-2.7l2-3.5h0.2l2,3.5c0.4,0.9,0.7,1.8,0.9,2.7
		c0.2-0.9,0.4-1.8,0.9-2.7l1.3-3.3h3.8L58.2,32H58l-2.4-4.6c-0.4-0.7-0.7-1.5-0.9-2.4c-0.2,0.9-0.4,1.5-0.9,2.4L51.1,32h-0.2
		L45.4,20.1z"/>
	<path d="M69.7,22.9c-0.9,0-2,0.4-2.7,1.1l-2-2.2c1.1-1.1,2.4-2,5.1-2c2.9,0,5.3,1.5,5.3,5.3v6.6h-3.8v-1.5
		c-0.9,1.3-1.8,1.8-3.3,1.8c-2.2,0-4-0.9-4-3.8c0-2.4,1.8-3.5,4.6-3.5h2.7C71.5,23.6,70.8,22.9,69.7,22.9z M69,27.1
		c-0.9,0-1.3,0.4-1.3,1.1s0.4,1.1,1.5,1.1c1.5,0,2.2-0.7,2.2-1.5v-0.4L69,27.1z"/>
	<path d="M89.4,20.1v2.7h-1.8c0.2,0.4,0.4,0.9,0.4,1.3c0,2.4-2,4.2-4.9,4.2c-0.9,0-1.5-0.2-2.4-0.4c-0.2,0.2-0.2,0.4-0.2,0.7
		c0,0.4,0.4,0.9,1.1,0.9l2.9,0.2c3.1,0.2,4.9,1.5,4.9,3.8c0,2.4-1.8,4.2-6.4,4.2c-4.2,0-6.2-1.5-6.2-3.8c0-1.3,0.9-2,2.2-2.7
		c-0.9-0.4-1.5-1.3-1.3-2.4c0-1.1,0.7-1.8,1.5-2.2c-0.7-0.7-1.1-1.8-1.1-2.7c0-2.4,2-4.2,5.1-4.2c0.7,0,1.1,0,1.8,0.2L89.4,20.1z
		 M80.5,33.5c0,0.9,0.7,1.5,2.7,1.5c2.2,0,2.7-0.7,2.7-1.3s-0.4-0.9-2-0.9l-3.1-0.2C80.5,32.9,80.5,33.1,80.5,33.5L80.5,33.5z
		 M85,24.3c0-0.9-0.7-1.5-1.8-1.5c-1.1,0-1.8,0.7-1.8,1.5c0,0.9,0.7,1.5,1.8,1.5C84.3,25.8,85,25.1,85,24.3L85,24.3z"/>
	<path d="M97.3,28.9c1.1,0,2-0.2,2.9-0.9l2,2.2c-1.1,0.9-2.4,1.8-4.9,1.8c-4.2,0-6.9-2.4-6.9-6s2.9-6,6.4-6c4.2,0,6.4,3.1,6.2,7.1
		h-8.8C94.9,28.2,95.8,28.9,97.3,28.9z M99.6,24.9c-0.2-1.3-0.9-2-2.4-2s-2.4,0.7-2.7,2H99.6z"/>
	<path d="M116.6,22.9c-0.9,0-2,0.4-2.7,1.1l-2-2.2c1.1-1.1,2.4-2,5.1-2c2.9,0,5.3,1.5,5.3,5.3v6.6h-3.8v-1.5
		c-0.9,1.3-1.8,1.8-3.3,1.8c-2.2,0-4-0.9-4-3.8c0-2.4,1.8-3.5,4.6-3.5h2.7C118.6,23.6,117.9,22.9,116.6,22.9z M113,13h4.2l1.3,5.1
		h-2.9L113,13z M116.1,27.1c-0.9,0-1.3,0.4-1.3,1.1s0.4,1.1,1.5,1.1c1.5,0,2.2-0.7,2.2-1.5v-0.4L116.1,27.1z"/>
	<path d="M134.9,16.5h-5.3v-3.3H144v3.3h-5.3v15h-3.8V16.5L134.9,16.5z"/>
	<path d="M143.1,20.1h3.8v2c0.9-2,2.2-2.4,3.3-2.4c0.7,0,1.3,0.2,1.8,0.4l-1.1,3.3c-0.4-0.2-0.9-0.4-1.3-0.4c-1.8,0-2.7,0.7-2.7,3.3
		v5.1h-3.8C143.1,31.3,143.1,20.1,143.1,20.1z"/>
	<path d="M152.9,26c0-3.5,2.9-6,6.4-6s6.4,2.4,6.4,6s-2.9,6-6.4,6C155.5,32,152.9,29.6,152.9,26z M161.7,26c0-1.8-0.9-2.9-2.7-2.9
		c-1.5,0-2.7,1.1-2.7,2.9s1.1,2.9,2.7,2.9S161.7,27.6,161.7,26L161.7,26z"/>
	<path d="M167.5,15.8c0-1.3,1.1-2.4,2.4-2.4s2.4,1.1,2.4,2.4s-1.1,2.4-2.4,2.4l0,0C168.3,18.3,167.5,17.2,167.5,15.8L167.5,15.8z
		 M167.9,20.1h3.8v11.5h-3.8V20.1z"/>
	<path d="M174.3,15.8c0-1.3,1.1-2.4,2.4-2.4s2.4,1.1,2.4,2.4s-1.1,2.4-2.4,2.4l0,0C175.4,18.3,174.3,17.2,174.3,15.8L174.3,15.8z
		 M174.8,20.1h3.8v11.5h-3.8V20.1z"/>
	<path d="M181.4,15.8c0-1.3,1.1-2.4,2.4-2.4s2.4,1.1,2.4,2.4s-1.1,2.4-2.4,2.4l0,0C182.5,18.3,181.4,17.2,181.4,15.8L181.4,15.8z
		 M181.8,20.1h3.8v11.5h-3.8V20.1z"/>
	<path d="M187.6,29.8l2.2-2c0.7,0.7,1.8,1.3,2.9,1.3c1.1,0,1.5-0.2,1.5-0.7c0-0.7-0.7-0.7-2.7-1.1c-1.5-0.4-3.3-1.3-3.3-3.8
		c0-2.7,2-3.8,4.4-3.8c2,0,3.3,0.7,4.2,1.5l-2,2c-0.7-0.4-1.3-0.9-2.2-0.9c-0.9,0-1.3,0.2-1.3,0.7c0,0.7,0.7,0.7,2.4,1.1
		c1.8,0.4,3.8,1.1,3.8,3.5c0,2.2-1.1,3.8-4.9,3.8C190.2,32,188.5,30.9,187.6,29.8z"/>
</g>
</svg>
